<?xml version="1.0" encoding="utf-8"?>
<!-- Generator: Adobe Illustrator 26.3.1, SVG Export Plug-In . SVG Version: 6.00 Build 0)  -->
<svg version="1.1"
	 id="Livello_1" xmlns:dc="http://purl.org/dc/elements/1.1/" xmlns:cc="http://creativecommons.org/ns#" xmlns:rdf="http://www.w3.org/1999/02/22-rdf-syntax-ns#"
	 xmlns="http://www.w3.org/2000/svg" xmlns:xlink="http://www.w3.org/1999/xlink" x="0px" y="0px" viewBox="0 0 740 280"
	 style="enable-background:new 0 0 740 280;" xml:space="preserve">
<style type="text/css">
	.st0{fill:#FF6635;}
	.st1{fill:#357EC0;}
	.st2{fill:#C8C8C8;}
</style>
<g>
	<path class="st0" d="M67.1,57.8c0,1.6-0.2,3.1-0.6,4.3c-0.4,1.3-0.9,2.4-1.6,3.4c-0.7,1-1.5,1.8-2.4,2.5c-0.9,0.7-1.8,1.3-2.8,1.7
		c-1,0.4-2,0.8-3,1c-1,0.2-1.9,0.3-2.8,0.3H37.8v-7.1h16.1c0.9-0.1,1.7-0.3,2.5-0.6s1.4-0.7,1.9-1.2c0.5-0.5,0.9-1.1,1.2-1.8
		c0.3-0.7,0.4-1.5,0.4-2.4v-3.2c-0.1-0.9-0.3-1.7-0.6-2.5c-0.3-0.7-0.7-1.4-1.2-1.9c-0.5-0.5-1.1-0.9-1.8-1.2s-1.5-0.5-2.5-0.5h-16
		c-0.9,0-1.7,0.2-2.2,0.7S35,50.4,35,51.3v29.2h-7.1V51.3c0-1.8,0.3-3.4,1-4.6c0.7-1.3,1.5-2.3,2.5-3.1c1-0.8,2.1-1.4,3.2-1.7
		c1.2-0.4,2.2-0.5,3.2-0.5h16.1c1.6,0,3,0.2,4.3,0.6c1.3,0.4,2.4,1,3.4,1.6c1,0.7,1.8,1.5,2.5,2.4c0.7,0.9,1.2,1.8,1.7,2.8
		c0.4,1,0.8,2,1,3c0.2,1,0.3,1.9,0.3,2.8V57.8z"/>
	<path class="st0" d="M80.3,57.4h25v-16h7.1v39.2h-7.1v-16h-25v16h-7.1V41.3h7.1V57.4z"/>
	<path class="st0" d="M159.8,57.8c0,1.6-0.2,3.1-0.6,4.3c-0.4,1.3-0.9,2.4-1.6,3.4c-0.7,1-1.5,1.8-2.4,2.5c-0.9,0.7-1.8,1.3-2.8,1.7
		c-1,0.4-2,0.8-3,1c-1,0.2-1.9,0.3-2.8,0.3h-16.1v-7.1h16.1c0.9-0.1,1.7-0.3,2.5-0.6s1.4-0.7,1.9-1.2c0.5-0.5,0.9-1.1,1.2-1.8
		c0.3-0.7,0.4-1.5,0.4-2.4v-3.2c-0.1-0.9-0.3-1.7-0.6-2.5c-0.3-0.7-0.7-1.4-1.2-1.9c-0.5-0.5-1.1-0.9-1.8-1.2s-1.5-0.5-2.5-0.5h-16
		c-0.9,0-1.7,0.2-2.2,0.7s-0.7,1.2-0.7,2.1v29.2h-7.1V51.3c0-1.8,0.3-3.4,1-4.6c0.7-1.3,1.5-2.3,2.5-3.1c1-0.8,2.1-1.4,3.2-1.7
		c1.2-0.4,2.2-0.5,3.2-0.5h16.1c1.6,0,3,0.2,4.3,0.6c1.3,0.4,2.4,1,3.4,1.6c1,0.7,1.8,1.5,2.5,2.4c0.7,0.9,1.2,1.8,1.7,2.8
		c0.4,1,0.8,2,1,3c0.2,1,0.3,1.9,0.3,2.8V57.8z"/>
	<path class="st0" d="M219,80.6h-25.6c-1,0-2.1-0.2-3.2-0.5c-1.2-0.3-2.2-0.9-3.2-1.7c-1-0.8-1.8-1.8-2.5-3.1c-0.7-1.3-1-2.8-1-4.7
		V44.9c0-0.5,0.1-1,0.3-1.4c0.2-0.4,0.4-0.8,0.8-1.1c0.3-0.3,0.7-0.6,1.1-0.8c0.4-0.2,0.9-0.3,1.4-0.3h32v7.1h-28.5v22.1
		c0,0.9,0.2,1.6,0.7,2.1s1.2,0.7,2.2,0.7H219V80.6z M215.8,64.5h-22.4v-7.2h22.4V64.5z"/>
	<path class="st0" d="M250.8,58.1h-16c-1,0-1.7,0.2-2.2,0.7c-0.5,0.5-0.7,1.2-0.7,2.1v19.6h-7.1V60.9c0-1.2,0.2-2.3,0.5-3.3
		c0.3-1,0.7-1.8,1.2-2.6s1.1-1.4,1.8-1.9c0.7-0.5,1.4-0.9,2.1-1.3s1.5-0.6,2.2-0.7c0.8-0.2,1.5-0.2,2.1-0.2h16.1V58.1z"/>
	<path class="st0" d="M281.1,58.1h-16c-1,0-1.7,0.2-2.2,0.7c-0.5,0.5-0.7,1.2-0.7,2.1v19.6h-7.1V60.9c0-1.2,0.2-2.3,0.5-3.3
		c0.3-1,0.7-1.8,1.2-2.6s1.1-1.4,1.8-1.9c0.7-0.5,1.4-0.9,2.1-1.3s1.5-0.6,2.2-0.7c0.8-0.2,1.5-0.2,2.1-0.2h16.1V58.1z"/>
	<path class="st0" d="M317.9,70.6c0,1.2-0.2,2.3-0.5,3.3c-0.3,1-0.7,1.8-1.2,2.6c-0.5,0.7-1.1,1.4-1.8,1.9c-0.7,0.5-1.4,0.9-2.1,1.3
		s-1.5,0.6-2.2,0.7c-0.8,0.2-1.5,0.2-2.1,0.2h-12.8c-1,0-2.1-0.2-3.2-0.5c-1.2-0.3-2.2-0.9-3.2-1.7c-1-0.8-1.8-1.8-2.5-3.1
		c-0.7-1.3-1-2.8-1-4.7v-9.6c0-1.8,0.3-3.4,1-4.6c0.7-1.3,1.5-2.3,2.5-3.1c1-0.8,2.1-1.4,3.2-1.7c1.2-0.3,2.2-0.5,3.2-0.5h12.8
		c1.8,0,3.4,0.3,4.6,1c1.3,0.7,2.3,1.5,3.1,2.5c0.8,1,1.4,2.1,1.7,3.2c0.4,1.2,0.5,2.3,0.5,3.3V70.6z M310.7,61c0-1-0.2-1.7-0.7-2.2
		c-0.5-0.5-1.2-0.7-2.1-0.7h-12.8c-0.9,0-1.7,0.2-2.2,0.7c-0.5,0.5-0.7,1.2-0.7,2.1v9.6c0,0.9,0.2,1.6,0.7,2.1s1.2,0.7,2.2,0.7h12.8
		c1,0,1.7-0.2,2.2-0.7c0.5-0.5,0.7-1.2,0.7-2.1V61z"/>
	<path class="st0" d="M349.8,58.1h-16c-1,0-1.7,0.2-2.2,0.7c-0.5,0.5-0.7,1.2-0.7,2.1v19.6h-7.1V60.9c0-1.2,0.2-2.3,0.5-3.3
		c0.3-1,0.7-1.8,1.2-2.6s1.1-1.4,1.8-1.9c0.7-0.5,1.4-0.9,2.1-1.3s1.5-0.6,2.2-0.7c0.8-0.2,1.5-0.2,2.1-0.2h16.1V58.1z"/>
	<path class="st0" d="M409,80.6h-32.4c-0.5,0-1-0.1-1.4-0.3c-0.4-0.2-0.8-0.4-1.1-0.8c-0.3-0.3-0.6-0.7-0.8-1.1
		c-0.2-0.4-0.3-0.9-0.3-1.4V41.3h7.1v32.1H409V80.6z"/>
	<path class="st0" d="M445.6,70.6c0,1.2-0.2,2.3-0.5,3.3c-0.3,1-0.7,1.8-1.2,2.6c-0.5,0.7-1.1,1.4-1.8,1.9c-0.7,0.5-1.4,0.9-2.1,1.3
		s-1.5,0.6-2.2,0.7c-0.8,0.2-1.5,0.2-2.1,0.2h-12.8c-1,0-2.1-0.2-3.2-0.5c-1.2-0.3-2.2-0.9-3.2-1.7c-1-0.8-1.8-1.8-2.5-3.1
		c-0.7-1.3-1-2.8-1-4.7v-9.6c0-1.8,0.3-3.4,1-4.6c0.7-1.3,1.5-2.3,2.5-3.1c1-0.8,2.1-1.4,3.2-1.7c1.2-0.3,2.2-0.5,3.2-0.5h12.8
		c1.8,0,3.4,0.3,4.6,1c1.3,0.7,2.3,1.5,3.1,2.5c0.8,1,1.4,2.1,1.7,3.2c0.4,1.2,0.5,2.3,0.5,3.3V70.6z M438.5,61c0-1-0.2-1.7-0.7-2.2
		c-0.5-0.5-1.2-0.7-2.1-0.7h-12.8c-0.9,0-1.7,0.2-2.2,0.7c-0.5,0.5-0.7,1.2-0.7,2.1v9.6c0,0.9,0.2,1.6,0.7,2.1s1.2,0.7,2.2,0.7h12.8
		c1,0,1.7-0.2,2.2-0.7c0.5-0.5,0.7-1.2,0.7-2.1V61z"/>
	<path class="st0" d="M483.8,83.4c0,1.2-0.2,2.3-0.5,3.3c-0.3,1-0.7,1.8-1.2,2.6c-0.5,0.7-1.1,1.4-1.8,1.9c-0.7,0.5-1.4,0.9-2.1,1.3
		s-1.5,0.6-2.2,0.7c-0.8,0.2-1.5,0.2-2.1,0.2H461v-7.1h12.8c1,0,1.7-0.2,2.2-0.7c0.5-0.5,0.7-1.2,0.7-2.1V60.9
		c0-0.9-0.2-1.6-0.7-2.1c-0.5-0.5-1.2-0.7-2.2-0.7H461c-0.9,0-1.6,0.3-2.1,0.8c-0.5,0.5-0.8,1.2-0.8,2v9.6c0,0.9,0.2,1.6,0.7,2.1
		s1.2,0.7,2.2,0.7h12.8v7.1H461c-0.7,0-1.4-0.1-2.1-0.2c-0.7-0.2-1.5-0.4-2.2-0.7s-1.4-0.8-2.1-1.3c-0.7-0.5-1.3-1.1-1.8-1.9
		c-0.5-0.7-0.9-1.6-1.2-2.6c-0.3-1-0.5-2.1-0.5-3.3v-9.6c0-0.7,0.1-1.4,0.2-2.1c0.2-0.7,0.4-1.5,0.7-2.2s0.8-1.4,1.3-2.1
		c0.5-0.7,1.1-1.3,1.9-1.8c0.7-0.5,1.6-0.9,2.6-1.2c1-0.3,2.1-0.5,3.3-0.5h12.8c0.7,0,1.4,0.1,2.1,0.2c0.8,0.2,1.5,0.4,2.2,0.7
		s1.4,0.8,2.1,1.3c0.7,0.5,1.3,1.1,1.8,1.9c0.5,0.7,0.9,1.6,1.2,2.6c0.3,1,0.5,2.1,0.5,3.3V83.4z"/>
	<path class="st1" d="M547.8,41.3l-18.6,37.8c-0.3,0.6-0.7,1.1-1.3,1.4s-1.2,0.5-1.9,0.5c-0.7,0-1.3-0.2-1.9-0.5s-1-0.8-1.3-1.4
		l-18.5-37.8h8l13.8,28.2l13.8-28.2H547.8z"/>
	<path class="st1" d="M558.3,44.9h-7.1v-6.4h7.1V44.9z M558.3,80.6h-7.1V51h7.1V80.6z"/>
	<path class="st1" d="M596.9,60.8c0,1-0.2,2-0.5,3.2c-0.3,1.1-0.9,2.2-1.7,3.2c-0.8,1-1.8,1.8-3,2.4c-1.2,0.7-2.8,1-4.6,1h-12.8
		v-6.8h12.8c1,0,1.7-0.3,2.2-0.9c0.5-0.6,0.8-1.3,0.8-2.2c0-0.9-0.3-1.7-0.9-2.2c-0.6-0.5-1.3-0.8-2.1-0.8h-12.8
		c-1,0-1.7,0.3-2.2,0.9c-0.5,0.6-0.8,1.3-0.8,2.2v9.9c0,0.9,0.3,1.7,0.9,2.2c0.6,0.5,1.3,0.8,2.2,0.8h12.8v6.8h-12.8
		c-1,0-2-0.2-3.2-0.5c-1.1-0.3-2.2-0.9-3.2-1.7c-1-0.8-1.8-1.8-2.4-3c-0.7-1.2-1-2.8-1-4.6v-10c0-1,0.2-2,0.5-3.2
		c0.3-1.1,0.9-2.2,1.7-3.2c0.8-1,1.8-1.8,3-2.4c1.2-0.7,2.8-1,4.6-1h12.8c1,0,2,0.2,3.2,0.5c1.1,0.3,2.2,0.9,3.2,1.7
		c1,0.8,1.8,1.8,2.4,3C596.5,57.5,596.9,59,596.9,60.8z"/>
	<path class="st1" d="M650.3,51c-1.1,2.5-2.4,5-3.7,7.5c-1.3,2.5-2.7,4.8-4.1,7c-1.4,2.2-2.9,4.2-4.4,6.1c-1.5,1.9-3,3.4-4.4,4.8
		c-1.5,1.3-2.9,2.4-4.3,3.1c-1.4,0.8-2.7,1.1-4,1.1c-0.5,0-1-0.1-1.4-0.3c-0.4-0.2-0.8-0.4-1.1-0.8c-0.3-0.3-0.6-0.7-0.8-1.1
		c-0.2-0.4-0.3-0.9-0.3-1.4V63.7l-14.1,15.8c-0.4,0.4-0.8,0.6-1.2,0.8c-0.4,0.2-0.9,0.3-1.3,0.3c-0.5,0-1-0.1-1.4-0.3
		c-0.4-0.2-0.8-0.4-1.1-0.8c-0.3-0.3-0.6-0.7-0.8-1.1s-0.3-0.9-0.3-1.4V51h7.1v16.8L622.9,52c0.5-0.5,1.1-0.8,1.8-1
		c0.7-0.1,1.4-0.1,2.1,0.2c0.7,0.3,1.2,0.7,1.6,1.3c0.4,0.6,0.6,1.2,0.6,2v16.9c1.5-1.5,2.9-3,4.2-4.7c1.2-1.6,2.4-3.3,3.5-5.1
		c1.1-1.7,2.1-3.5,3-5.3c0.9-1.8,1.9-3.6,2.7-5.4H650.3z"/>
	<path class="st1" d="M684.6,60.8c0,1-0.2,2-0.5,3.2c-0.3,1.1-0.9,2.2-1.7,3.2c-0.8,1-1.8,1.8-3,2.4c-1.2,0.7-2.8,1-4.6,1H662v-6.8
		h12.8c1,0,1.7-0.3,2.2-0.9c0.5-0.6,0.8-1.3,0.8-2.2c0-0.9-0.3-1.7-0.9-2.2c-0.6-0.5-1.3-0.8-2.1-0.8H662c-1,0-1.7,0.3-2.2,0.9
		c-0.5,0.6-0.8,1.3-0.8,2.2v9.9c0,0.9,0.3,1.7,0.9,2.2c0.6,0.5,1.3,0.8,2.2,0.8h12.8v6.8H662c-1,0-2-0.2-3.2-0.5
		c-1.1-0.3-2.2-0.9-3.2-1.7c-1-0.8-1.8-1.8-2.4-3c-0.7-1.2-1-2.8-1-4.6v-10c0-1,0.2-2,0.5-3.2c0.3-1.1,0.9-2.2,1.7-3.2
		c0.8-1,1.8-1.8,3-2.4c1.2-0.7,2.8-1,4.6-1h12.8c1,0,2,0.2,3.2,0.5c1.1,0.3,2.2,0.9,3.2,1.7c1,0.8,1.8,1.8,2.4,3
		C684.3,57.5,684.6,59,684.6,60.8z"/>
	<path class="st1" d="M715.2,58.1h-16c-1,0-1.7,0.2-2.2,0.7c-0.5,0.5-0.7,1.2-0.7,2.1v19.6h-7.1V60.9c0-1.2,0.2-2.3,0.5-3.3
		c0.3-1,0.7-1.8,1.2-2.6s1.1-1.4,1.8-1.9c0.7-0.5,1.4-0.9,2.1-1.3s1.5-0.6,2.2-0.7c0.8-0.2,1.5-0.2,2.1-0.2h16.1V58.1z"/>
</g>
<g>
	<path class="st2" d="M77.9,130.5c0-5.3,3.3-8.5,7.5-8.5c2,0,3.7,0.9,4.7,2.1l-1.6,1.8c-0.8-0.8-1.8-1.3-3.1-1.3
		c-2.6,0-4.5,2.2-4.5,5.8c0,3.7,1.7,5.9,4.4,5.9c1.4,0,2.5-0.6,3.4-1.6l1.6,1.8c-1.4,1.6-3.1,2.4-5.2,2.4
		C81.2,138.9,77.9,136,77.9,130.5z"/>
	<path class="st2" d="M92.9,126.4h2.4l0.2,2.2h0.1c0.9-1.6,2.2-2.5,3.5-2.5c0.6,0,1,0.1,1.4,0.2l-0.6,2.5c-0.4-0.1-0.7-0.1-1.2-0.1
		c-1,0-2.1,0.6-2.9,2.5v7.4h-3V126.4z"/>
	<path class="st2" d="M101.2,132.5c0-4,2.8-6.4,5.7-6.4c3.3,0,5.1,2.4,5.1,5.8c0,0.6-0.1,1-0.2,1.5h-7.7c0.3,2,1.6,3.2,3.5,3.2
		c1,0,2-0.3,2.8-0.8l1,1.8c-1.1,0.8-2.6,1.3-4.2,1.3C103.9,138.9,101.2,136.6,101.2,132.5z M109.4,131.2c0-1.8-0.8-2.8-2.4-2.8
		c-1.4,0-2.6,1-2.8,2.8H109.4z"/>
	<path class="st2" d="M113.8,135.4c0-2.7,2.1-4,7.2-4.6c-0.1-1.2-0.6-2.3-2.2-2.3c-1.2,0-2.3,0.5-3.4,1.1l-1-1.9
		c1.3-0.8,3.1-1.6,5-1.6c3,0,4.6,1.9,4.6,5.3v7.3h-2.4l-0.2-1.3h-0.1c-1.1,0.9-2.3,1.6-3.7,1.6C115.3,138.9,113.8,137.5,113.8,135.4
		z M121,135.4v-2.6c-3.3,0.4-4.3,1.1-4.3,2.4c0,1,0.7,1.4,1.7,1.4C119.3,136.6,120.1,136.2,121,135.4z"/>
	<path class="st2" d="M127.4,134.5v-5.8h-1.7v-2.2l1.9-0.1l0.4-3.8h2.4v3.8h3.1v2.3h-3.1v5.8c0,1.4,0.6,2.1,1.7,2.1
		c0.4,0,0.8-0.1,1.3-0.2l0.5,2.1c-0.6,0.3-1.5,0.5-2.5,0.5C128.4,138.9,127.4,137.2,127.4,134.5z"/>
	<path class="st2" d="M134.8,132.5c0-4,2.8-6.4,5.7-6.4c3.3,0,5.1,2.4,5.1,5.8c0,0.6-0.1,1-0.2,1.5h-7.7c0.3,2,1.6,3.2,3.5,3.2
		c1,0,2-0.3,2.8-0.8l1,1.8c-1.1,0.8-2.6,1.3-4.2,1.3C137.5,138.9,134.8,136.6,134.8,132.5z M143,131.2c0-1.8-0.8-2.8-2.4-2.8
		c-1.4,0-2.6,1-2.8,2.8H143z"/>
	<path class="st2" d="M152.7,135.4c0-2.7,2.1-4,7.2-4.6c-0.1-1.2-0.6-2.3-2.2-2.3c-1.2,0-2.3,0.5-3.4,1.1l-1-1.9
		c1.3-0.8,3.1-1.6,5-1.6c3,0,4.6,1.9,4.6,5.3v7.3h-2.4l-0.2-1.3h-0.1c-1.1,0.9-2.3,1.6-3.7,1.6C154.2,138.9,152.7,137.5,152.7,135.4
		z M159.9,135.4v-2.6c-3.3,0.4-4.3,1.1-4.3,2.4c0,1,0.7,1.4,1.7,1.4C158.2,136.6,159,136.2,159.9,135.4z"/>
	<path class="st2" d="M173.9,137.4L173.9,137.4l-0.4,1.3h-2.3V121h3v4.5l-0.1,2c1-0.9,2.3-1.5,3.5-1.5c3.1,0,4.8,2.5,4.8,6.2
		c0,4.2-2.5,6.6-5.2,6.6C176.1,138.9,174.9,138.4,173.9,137.4z M179.4,132.4c0-2.4-0.8-3.8-2.6-3.8c-0.9,0-1.7,0.4-2.6,1.3v5.7
		c0.8,0.7,1.7,1,2.4,1C178.2,136.5,179.4,135.1,179.4,132.4z"/>
	<path class="st2" d="M185.3,126.4h2.4l0.2,2.2h0.1c0.9-1.6,2.2-2.5,3.5-2.5c0.6,0,1,0.1,1.4,0.2l-0.6,2.5c-0.4-0.1-0.7-0.1-1.2-0.1
		c-1,0-2.1,0.6-2.9,2.5v7.4h-3V126.4z"/>
	<path class="st2" d="M193.7,132.5c0-4.1,2.8-6.5,5.9-6.5c3,0,5.8,2.4,5.8,6.5c0,4.1-2.8,6.4-5.8,6.4
		C196.5,138.9,193.7,136.6,193.7,132.5z M202.4,132.5c0-2.4-1-4-2.8-4c-1.8,0-2.8,1.6-2.8,4c0,2.4,1,4,2.8,4
		C201.3,136.6,202.4,135,202.4,132.5z"/>
	<path class="st2" d="M206.8,126.4h2.9l1.4,6.4c0.2,1.1,0.5,2.2,0.6,3.6h0.1c0.2-1.4,0.4-2.5,0.7-3.6l1.5-6.4h3l1.5,6.4
		c0.3,1.1,0.5,2.2,0.7,3.6h0.1c0.2-1.4,0.4-2.5,0.6-3.6l1.4-6.4h2.7l-3.1,12.3h-3.7l-1.2-5.7c-0.2-1.1-0.4-2.1-0.7-3.7h-0.1
		c-0.2,1.6-0.4,2.6-0.6,3.7l-1.2,5.7h-3.5L206.8,126.4z"/>
	<path class="st2" d="M225.5,137.2l1.3-1.7c1.1,0.9,2.2,1.2,3.4,1.2c1.3,0,1.9-0.6,1.9-1.4c0-1-1.2-1.4-2.6-1.9
		c-1.8-0.6-3.4-1.7-3.4-3.6c0-2.1,1.7-3.7,4.5-3.7c1.7,0,3.1,0.6,4.1,1.5l-1.3,1.7c-0.9-0.6-1.8-0.9-2.7-0.9c-1.2,0-1.8,0.6-1.8,1.3
		c0,0.9,0.9,1.2,2.4,1.8c1.9,0.6,3.6,1.6,3.6,3.7c0,2.1-1.7,3.8-4.8,3.8C228.5,138.9,226.7,138.3,225.5,137.2z"/>
	<path class="st2" d="M236.7,132.5c0-4,2.8-6.4,5.7-6.4c3.3,0,5.1,2.4,5.1,5.8c0,0.6,0,1-0.1,1.5h-7.7c0.3,2,1.6,3.2,3.5,3.2
		c1,0,2-0.3,2.8-0.8l1,1.8c-1.1,0.8-2.6,1.3-4.2,1.3C239.4,138.9,236.7,136.6,236.7,132.5z M244.9,131.2c0-1.8-0.8-2.8-2.4-2.8
		c-1.4,0-2.6,1-2.8,2.8H244.9z"/>
	<path class="st2" d="M250.2,126.4h2.4l0.2,2.2h0.1c0.9-1.6,2.2-2.5,3.5-2.5c0.6,0,1,0.1,1.4,0.2l-0.6,2.5c-0.4-0.1-0.7-0.1-1.2-0.1
		c-1,0-2.1,0.6-2.9,2.5v7.4h-3V126.4z"/>
	<path class="st2" d="M258.2,131.3h6v2.1h-6V131.3z"/>
	<path class="st2" d="M265.3,126.4h3l1.9,6.3c0.4,1.2,0.7,2.5,1,3.7h0.1c0.3-1.2,0.7-2.5,1-3.7l1.9-6.3h2.8l-4.2,12.3h-3.4
		L265.3,126.4z"/>
	<path class="st2" d="M278.9,122.6c0-1,0.7-1.7,1.8-1.7s1.8,0.7,1.8,1.7c0,1-0.7,1.7-1.8,1.7S278.9,123.6,278.9,122.6z M279.2,126.4
		h3v12.3h-3V126.4z"/>
	<path class="st2" d="M285,132.5c0-4,2.8-6.4,5.7-6.4c3.3,0,5.1,2.4,5.1,5.8c0,0.6-0.1,1-0.2,1.5h-7.7c0.3,2,1.6,3.2,3.5,3.2
		c1,0,2-0.3,2.8-0.8l1,1.8c-1.1,0.8-2.6,1.3-4.2,1.3C287.6,138.9,285,136.6,285,132.5z M293.2,131.2c0-1.8-0.8-2.8-2.4-2.8
		c-1.4,0-2.6,1-2.8,2.8H293.2z"/>
	<path class="st2" d="M297.3,126.4h2.9l1.4,6.4c0.2,1.1,0.4,2.2,0.6,3.6h0.1c0.2-1.4,0.4-2.5,0.7-3.6l1.5-6.4h3l1.5,6.4
		c0.3,1.1,0.5,2.2,0.7,3.6h0.1c0.2-1.4,0.4-2.5,0.6-3.6l1.4-6.4h2.7l-3.1,12.3H308l-1.2-5.7c-0.2-1.1-0.4-2.1-0.7-3.7H306
		c-0.2,1.6-0.4,2.6-0.6,3.7l-1.2,5.7h-3.5L297.3,126.4z"/>
	<path class="st2" d="M316.3,135.4c0-2.7,2.1-4,7.2-4.6c-0.1-1.2-0.6-2.3-2.2-2.3c-1.2,0-2.3,0.5-3.4,1.1l-1-1.9
		c1.3-0.8,3.1-1.6,5-1.6c3,0,4.6,1.9,4.6,5.3v7.3H324l-0.2-1.3h-0.1c-1.1,0.9-2.3,1.6-3.7,1.6C317.8,138.9,316.3,137.5,316.3,135.4z
		 M323.5,135.4v-2.6c-3.3,0.4-4.3,1.1-4.3,2.4c0,1,0.7,1.4,1.7,1.4C321.8,136.6,322.6,136.2,323.5,135.4z"/>
	<path class="st2" d="M332.5,137.4L332.5,137.4l-0.4,1.3h-2.3V121h3v4.5l-0.1,2c1-0.9,2.3-1.5,3.5-1.5c3.1,0,4.8,2.5,4.8,6.2
		c0,4.2-2.5,6.6-5.2,6.6C334.7,138.9,333.5,138.4,332.5,137.4z M338.1,132.4c0-2.4-0.8-3.8-2.6-3.8c-0.9,0-1.7,0.4-2.6,1.3v5.7
		c0.8,0.7,1.7,1,2.4,1C336.8,136.5,338.1,135.1,338.1,132.4z"/>
	<path class="st2" d="M343.9,135.4V121h3v14.6c0,0.7,0.3,1,0.6,1c0.2,0,0.2,0,0.5,0l0.3,2.2c-0.3,0.2-0.8,0.3-1.5,0.3
		C344.7,138.9,343.9,137.6,343.9,135.4z"/>
	<path class="st2" d="M349.9,132.5c0-4,2.8-6.4,5.7-6.4c3.3,0,5.1,2.4,5.1,5.8c0,0.6,0,1-0.1,1.5h-7.7c0.3,2,1.6,3.2,3.5,3.2
		c1,0,2-0.3,2.8-0.8l1,1.8c-1.1,0.8-2.6,1.3-4.2,1.3C352.6,138.9,349.9,136.6,349.9,132.5z M358.1,131.2c0-1.8-0.8-2.8-2.4-2.8
		c-1.4,0-2.6,1-2.8,2.8H358.1z"/>
	<path class="st2" d="M367.7,132.5c0-4,2.5-6.5,5.2-6.5c1.4,0,2.2,0.5,3.2,1.4l-0.1-2V121h2.9v17.6h-2.4l-0.2-1.3h-0.1
		c-0.9,0.9-2.1,1.6-3.4,1.6C369.7,138.9,367.7,136.6,367.7,132.5z M376,135.2v-5.6c-0.8-0.7-1.6-1-2.5-1c-1.5,0-2.8,1.4-2.8,4
		c0,2.6,1,4,2.7,4C374.4,136.5,375.2,136.1,376,135.2z"/>
	<path class="st2" d="M382.3,122.6c0-1,0.7-1.7,1.8-1.7s1.8,0.7,1.8,1.7c0,1-0.7,1.7-1.8,1.7S382.3,123.6,382.3,122.6z M382.6,126.4
		h3v12.3h-3V126.4z"/>
	<path class="st2" d="M387.9,137.2l1.3-1.7c1.1,0.9,2.2,1.2,3.4,1.2c1.3,0,1.9-0.6,1.9-1.4c0-1-1.2-1.4-2.6-1.9
		c-1.8-0.6-3.4-1.7-3.4-3.6c0-2.1,1.8-3.7,4.5-3.7c1.7,0,3.1,0.6,4.1,1.5l-1.3,1.7c-0.9-0.6-1.8-0.9-2.7-0.9c-1.2,0-1.8,0.6-1.8,1.3
		c0,0.9,0.9,1.2,2.4,1.8c1.9,0.6,3.6,1.6,3.6,3.7c0,2.1-1.7,3.8-4.8,3.8C390.9,138.9,389.1,138.3,387.9,137.2z"/>
	<path class="st2" d="M399.9,126.4h2.4l0.2,1.3h0.1c1-0.9,2.3-1.6,3.7-1.6c3,0,4.8,2.5,4.8,6.3c0,4.2-2.5,6.6-5.2,6.6
		c-1.1,0-2.2-0.5-3.1-1.3l0.1,2v3.8h-3V126.4z M408.1,132.4c0-2.4-0.8-3.8-2.6-3.8c-0.9,0-1.7,0.4-2.6,1.3v5.7c0.9,0.7,1.7,1,2.4,1
		C406.9,136.5,408.1,135.1,408.1,132.4z"/>
	<path class="st2" d="M414.1,135.4V121h3v14.6c0,0.7,0.3,1,0.6,1c0.2,0,0.2,0,0.5,0l0.3,2.2c-0.3,0.2-0.8,0.3-1.5,0.3
		C414.8,138.9,414.1,137.6,414.1,135.4z"/>
	<path class="st2" d="M420.2,135.4c0-2.7,2.1-4,7.2-4.6c0-1.2-0.5-2.3-2.2-2.3c-1.2,0-2.3,0.5-3.4,1.1l-1-1.9c1.3-0.8,3.1-1.6,5-1.6
		c3,0,4.6,1.9,4.6,5.3v7.3h-2.4l-0.2-1.3h-0.1c-1.1,0.9-2.3,1.6-3.7,1.6C421.7,138.9,420.2,137.5,420.2,135.4z M427.4,135.4v-2.6
		c-3.3,0.4-4.3,1.1-4.3,2.4c0,1,0.7,1.4,1.7,1.4C425.7,136.6,426.5,136.2,427.4,135.4z"/>
	<path class="st2" d="M433,143.4l0.6-2.2c0.3,0.1,0.6,0.1,0.8,0.1c1.3,0,2-0.8,2.4-2l0.2-0.8l-4.8-12.1h3l2.1,6
		c0.4,1.1,0.7,2.3,1.1,3.5h0.1c0.3-1.1,0.6-2.3,0.9-3.5l1.8-6h2.8l-4.4,12.8c-1,2.8-2.3,4.5-5,4.5
		C433.9,143.7,433.5,143.6,433,143.4z"/>
	<path class="st2" d="M450.4,132.5c0-4.1,2.8-6.5,5.9-6.5c3,0,5.8,2.4,5.8,6.5c0,4.1-2.8,6.4-5.8,6.4
		C453.2,138.9,450.4,136.6,450.4,132.5z M459.1,132.5c0-2.4-1-4-2.8-4s-2.8,1.6-2.8,4c0,2.4,1,4,2.8,4S459.1,135,459.1,132.5z"/>
	<path class="st2" d="M465.3,128.7h-1.6v-2.2l1.6-0.1v-1.2c0-2.5,1.2-4.4,4.1-4.4c0.9,0,1.7,0.2,2.3,0.4l-0.6,2.1
		c-0.4-0.1-0.9-0.2-1.3-0.2c-1,0-1.5,0.6-1.5,2v1.2h2.4v2.3h-2.4v9.9h-2.9V128.7z"/>
	<path class="st2" d="M478.2,134.5v-5.8h-1.7v-2.2l1.9-0.1l0.3-3.8h2.5v3.8h3.1v2.3h-3.1v5.8c0,1.4,0.6,2.1,1.7,2.1
		c0.4,0,0.9-0.1,1.3-0.2l0.5,2.1c-0.6,0.3-1.5,0.5-2.5,0.5C479.3,138.9,478.2,137.2,478.2,134.5z"/>
	<path class="st2" d="M486.8,121h3v4.5l-0.1,2.3c1-0.9,2.2-1.8,3.9-1.8c2.6,0,3.8,1.8,3.8,4.9v7.7h-2.9v-7.3c0-2-0.6-2.7-1.9-2.7
		c-1.1,0-1.8,0.5-2.8,1.5v8.5h-3V121z"/>
	<path class="st2" d="M500,132.5c0-4,2.8-6.4,5.7-6.4c3.3,0,5.1,2.4,5.1,5.8c0,0.6,0,1-0.1,1.5h-7.7c0.3,2,1.6,3.2,3.5,3.2
		c1,0,2-0.3,2.8-0.8l1,1.8c-1.1,0.8-2.6,1.3-4.2,1.3C502.7,138.9,500,136.6,500,132.5z M508.2,131.2c0-1.8-0.9-2.8-2.5-2.8
		c-1.4,0-2.6,1-2.8,2.8H508.2z"/>
	<path class="st2" d="M518.8,122.3h5.2c3.6,0,6.3,1.3,6.3,5.1c0,3.6-2.7,5.3-6.2,5.3h-2.3v6h-3V122.3z M523.8,130.3
		c2.4,0,3.5-0.9,3.5-2.9c0-2-1.2-2.7-3.6-2.7h-2v5.6H523.8z"/>
	<path class="st2" d="M533.4,122.3h3v6.5h6.5v-6.5h3v16.3h-3v-7.2h-6.5v7.2h-3V122.3z"/>
	<path class="st2" d="M550,122.3h5.2c3.6,0,6.3,1.3,6.3,5.1c0,3.6-2.7,5.3-6.2,5.3h-2.3v6h-3V122.3z M555,130.3
		c2.4,0,3.5-0.9,3.5-2.9c0-2-1.2-2.7-3.6-2.7h-2v5.6H555z"/>
	<path class="st2" d="M568.5,132.5c0-4,2.8-6.4,5.7-6.4c3.3,0,5.1,2.4,5.1,5.8c0,0.6,0,1-0.1,1.5h-7.7c0.3,2,1.6,3.2,3.5,3.2
		c1,0,2-0.3,2.8-0.8l1,1.8c-1.1,0.8-2.6,1.3-4.2,1.3C571.1,138.9,568.5,136.6,568.5,132.5z M576.7,131.2c0-1.8-0.8-2.8-2.4-2.8
		c-1.4,0-2.6,1-2.8,2.8H576.7z"/>
	<path class="st2" d="M582,126.4h2.4l0.2,2.2h0.1c0.9-1.6,2.2-2.5,3.5-2.5c0.6,0,1,0.1,1.4,0.2l-0.6,2.5c-0.4-0.1-0.7-0.1-1.2-0.1
		c-1,0-2.1,0.6-2.9,2.5v7.4h-3V126.4z"/>
	<path class="st2" d="M591.4,126.4h2.4l0.2,2.2h0.1c0.9-1.6,2.2-2.5,3.5-2.5c0.6,0,1,0.1,1.4,0.2l-0.6,2.5c-0.4-0.1-0.7-0.1-1.2-0.1
		c-1,0-2.1,0.6-2.9,2.5v7.4h-3V126.4z"/>
	<path class="st2" d="M599.7,132.5c0-4.1,2.8-6.5,5.9-6.5c3,0,5.8,2.4,5.8,6.5c0,4.1-2.8,6.4-5.8,6.4
		C602.5,138.9,599.7,136.6,599.7,132.5z M608.4,132.5c0-2.4-1-4-2.8-4s-2.8,1.6-2.8,4c0,2.4,1,4,2.8,4S608.4,135,608.4,132.5z"/>
	<path class="st2" d="M614.2,126.4h2.4l0.2,2.2h0.1c0.9-1.6,2.2-2.5,3.5-2.5c0.6,0,1,0.1,1.4,0.2l-0.6,2.5c-0.4-0.1-0.7-0.1-1.2-0.1
		c-1,0-2.1,0.6-2.9,2.5v7.4h-3V126.4z"/>
	<path class="st2" d="M628.6,135.4V121h3v14.6c0,0.7,0.3,1,0.6,1c0.2,0,0.2,0,0.5,0l0.3,2.2c-0.3,0.2-0.8,0.3-1.5,0.3
		C629.4,138.9,628.6,137.6,628.6,135.4z"/>
	<path class="st2" d="M634.6,132.5c0-4.1,2.8-6.5,5.9-6.5c3,0,5.8,2.4,5.8,6.5c0,4.1-2.8,6.4-5.8,6.4
		C637.4,138.9,634.6,136.6,634.6,132.5z M643.3,132.5c0-2.4-1-4-2.8-4s-2.8,1.6-2.8,4c0,2.4,1,4,2.8,4S643.3,135,643.3,132.5z"/>
	<path class="st2" d="M648.3,140.9c0-1,0.7-1.9,1.8-2.6v-0.1c-0.6-0.4-1.1-1-1.1-2c0-0.9,0.6-1.8,1.4-2.3v-0.1
		c-0.8-0.6-1.6-1.8-1.6-3.2c0-2.8,2.3-4.4,4.9-4.4c0.7,0,1.3,0.1,1.8,0.3h4.4v2.2h-2.2c0.4,0.5,0.7,1.2,0.7,2c0,2.7-2.1,4.2-4.7,4.2
		c-0.5,0-1.1-0.1-1.6-0.3c-0.3,0.3-0.6,0.6-0.6,1.1c0,0.7,0.5,1.1,2,1.1h2.2c2.9,0,4.5,0.9,4.5,3c0,2.4-2.5,4.3-6.6,4.3
		C650.5,144.1,648.3,143,648.3,140.9z M657.2,140.2c0-0.9-0.7-1.2-2.1-1.2h-1.6c-0.7,0-1.2-0.1-1.7-0.2c-0.7,0.5-0.9,1-0.9,1.6
		c0,1.1,1.2,1.7,3.1,1.7C655.9,142.1,657.2,141.2,657.2,140.2z M655.7,130.5c0-1.5-0.9-2.4-2.1-2.4c-1.2,0-2.1,0.8-2.1,2.4
		c0,1.5,0.9,2.4,2.1,2.4C654.8,132.9,655.7,132,655.7,130.5z"/>
	<path class="st2" d="M662,137c0-1.1,0.8-2,1.9-2c1.1,0,1.9,0.9,1.9,2c0,1.1-0.8,2-1.9,2C662.8,138.9,662,138.1,662,137z"/>
	<path class="st2" d="M95.6,152.3h3.5l2.8,8c0.3,1,0.6,2,0.9,3.2h0.1c0.3-1.2,0.6-2.1,0.9-3.2l2.8-8h3.5v16.3h-2.7v-7.4
		c0-1.5,0.2-3.8,0.4-5.3h-0.1l-1.3,3.9l-2.6,7.3h-1.9l-2.6-7.3l-1.3-3.9h-0.1c0.2,1.5,0.5,3.7,0.5,5.3v7.4h-2.7V152.3z"/>
	<path class="st2" d="M113.2,162.5c0-4,2.8-6.4,5.7-6.4c3.3,0,5.1,2.4,5.1,5.8c0,0.6-0.1,1-0.2,1.5h-7.7c0.3,2,1.6,3.2,3.5,3.2
		c1,0,2-0.3,2.8-0.9l1,1.8c-1.1,0.8-2.6,1.3-4.2,1.3C115.8,168.9,113.2,166.6,113.2,162.5z M121.4,161.2c0-1.8-0.8-2.8-2.4-2.8
		c-1.4,0-2.6,1-2.8,2.8H121.4z"/>
	<path class="st2" d="M125.5,167.1l1.3-1.7c1.1,0.9,2.2,1.2,3.4,1.2c1.3,0,1.9-0.6,1.9-1.4c0-1-1.2-1.4-2.6-1.9
		c-1.8-0.7-3.4-1.7-3.4-3.6c0-2.1,1.7-3.7,4.5-3.7c1.7,0,3.1,0.6,4.1,1.5l-1.3,1.7c-0.9-0.6-1.8-0.9-2.7-0.9c-1.2,0-1.8,0.6-1.8,1.3
		c0,0.9,0.9,1.2,2.4,1.8c1.9,0.7,3.6,1.6,3.6,3.7c0,2.1-1.7,3.8-4.8,3.8C128.4,168.9,126.7,168.3,125.5,167.1z"/>
	<path class="st2" d="M136.3,167.1l1.3-1.7c1.1,0.9,2.2,1.2,3.4,1.2c1.3,0,1.9-0.6,1.9-1.4c0-1-1.2-1.4-2.6-1.9
		c-1.8-0.7-3.4-1.7-3.4-3.6c0-2.1,1.7-3.7,4.5-3.7c1.7,0,3.1,0.6,4.1,1.5l-1.3,1.7c-0.9-0.6-1.8-0.9-2.7-0.9c-1.2,0-1.8,0.6-1.8,1.3
		c0,0.9,0.9,1.2,2.4,1.8c1.9,0.7,3.6,1.6,3.6,3.7c0,2.1-1.7,3.8-4.8,3.8C139.2,168.9,137.5,168.3,136.3,167.1z"/>
	<path class="st2" d="M147.6,165.4c0-2.7,2.1-4,7.2-4.6c-0.1-1.2-0.6-2.3-2.2-2.3c-1.2,0-2.3,0.5-3.4,1.1l-1-1.9
		c1.3-0.8,3.1-1.6,5-1.6c3,0,4.6,1.9,4.6,5.3v7.3h-2.4l-0.2-1.3H155c-1.1,1-2.3,1.6-3.7,1.6C149.1,168.9,147.6,167.5,147.6,165.4z
		 M154.8,165.4v-2.6c-3.3,0.4-4.3,1.1-4.3,2.4c0,1,0.7,1.4,1.7,1.4C153.2,166.6,153.9,166.2,154.8,165.4z"/>
	<path class="st2" d="M160.3,170.9c0-1,0.6-1.9,1.8-2.6v-0.1c-0.6-0.4-1.1-1-1.1-2c0-0.9,0.6-1.8,1.4-2.3v-0.1
		c-0.9-0.6-1.6-1.8-1.6-3.2c0-2.8,2.3-4.4,4.9-4.4c0.7,0,1.3,0.1,1.8,0.3h4.4v2.2h-2.2c0.4,0.5,0.7,1.2,0.7,2c0,2.7-2.1,4.2-4.7,4.2
		c-0.5,0-1.1-0.1-1.6-0.3c-0.4,0.3-0.6,0.6-0.6,1.2c0,0.7,0.5,1.1,2,1.1h2.2c2.9,0,4.5,0.9,4.5,3c0,2.4-2.5,4.3-6.6,4.3
		C162.5,174.1,160.3,173,160.3,170.9z M169.2,170.2c0-0.9-0.8-1.2-2.1-1.2h-1.6c-0.7,0-1.2,0-1.7-0.2c-0.6,0.5-0.9,1-0.9,1.6
		c0,1.1,1.2,1.7,3.1,1.7C167.9,172.1,169.2,171.2,169.2,170.2z M167.7,160.5c0-1.5-0.9-2.4-2.1-2.4s-2.1,0.9-2.1,2.4
		c0,1.5,0.9,2.4,2.1,2.4C166.8,162.9,167.7,162,167.7,160.5z"/>
	<path class="st2" d="M173,162.5c0-4,2.8-6.4,5.7-6.4c3.3,0,5.1,2.4,5.1,5.8c0,0.6-0.1,1-0.2,1.5h-7.7c0.3,2,1.6,3.2,3.5,3.2
		c1,0,2-0.3,2.8-0.9l1,1.8c-1.1,0.8-2.6,1.3-4.2,1.3C175.6,168.9,173,166.6,173,162.5z M181.2,161.2c0-1.8-0.8-2.8-2.4-2.8
		c-1.4,0-2.6,1-2.8,2.8H181.2z"/>
	<path class="st2" d="M185.3,167.1l1.3-1.7c1.1,0.9,2.2,1.2,3.4,1.2c1.3,0,1.9-0.6,1.9-1.4c0-1-1.2-1.4-2.6-1.9
		c-1.8-0.7-3.4-1.7-3.4-3.6c0-2.1,1.7-3.7,4.5-3.7c1.7,0,3.1,0.6,4.1,1.5l-1.3,1.7c-0.9-0.6-1.8-0.9-2.7-0.9c-1.2,0-1.8,0.6-1.8,1.3
		c0,0.9,0.9,1.2,2.4,1.8c1.9,0.7,3.6,1.6,3.6,3.7c0,2.1-1.7,3.8-4.8,3.8C188.2,168.9,186.5,168.3,185.3,167.1z"/>
	<path class="st2" d="M201.6,165.4c0-2.7,2.1-4,7.2-4.6c-0.1-1.2-0.6-2.3-2.2-2.3c-1.2,0-2.3,0.5-3.4,1.1l-1-1.9
		c1.3-0.8,3.1-1.6,5-1.6c3,0,4.6,1.9,4.6,5.3v7.3h-2.4l-0.2-1.3H209c-1.1,1-2.3,1.6-3.7,1.6C203.1,168.9,201.6,167.5,201.6,165.4z
		 M208.8,165.4v-2.6c-3.3,0.4-4.3,1.1-4.3,2.4c0,1,0.7,1.4,1.7,1.4C207.2,166.6,207.9,166.2,208.8,165.4z"/>
	<path class="st2" d="M215.2,156.4h2.4l0.2,2.2h0.1c0.9-1.6,2.2-2.5,3.5-2.5c0.6,0,1,0.1,1.4,0.2l-0.6,2.5c-0.4-0.1-0.7-0.2-1.2-0.2
		c-1,0-2.1,0.7-2.9,2.5v7.4h-3V156.4z"/>
	<path class="st2" d="M223.5,162.5c0-4,2.8-6.4,5.7-6.4c3.3,0,5.1,2.4,5.1,5.8c0,0.6-0.1,1-0.2,1.5h-7.7c0.3,2,1.6,3.2,3.5,3.2
		c1,0,2-0.3,2.8-0.9l1,1.8c-1.1,0.8-2.6,1.3-4.2,1.3C226.2,168.9,223.5,166.6,223.5,162.5z M231.7,161.2c0-1.8-0.8-2.8-2.4-2.8
		c-1.4,0-2.6,1-2.8,2.8H231.7z"/>
	<path class="st2" d="M240.8,167.1l1.3-1.7c1.1,0.9,2.2,1.2,3.4,1.2c1.3,0,1.9-0.6,1.9-1.4c0-1-1.2-1.4-2.6-1.9
		c-1.8-0.7-3.4-1.7-3.4-3.6c0-2.1,1.7-3.7,4.5-3.7c1.7,0,3.1,0.6,4.1,1.5l-1.3,1.7c-0.9-0.6-1.8-0.9-2.7-0.9c-1.2,0-1.8,0.6-1.8,1.3
		c0,0.9,0.9,1.2,2.4,1.8c1.9,0.7,3.6,1.6,3.6,3.7c0,2.1-1.7,3.8-4.8,3.8C243.8,168.9,242,168.3,240.8,167.1z"/>
	<path class="st2" d="M252.8,164.5v-5.8H251v-2.2l1.9-0.1l0.4-3.8h2.4v3.8h3.1v2.3h-3.1v5.8c0,1.4,0.6,2.1,1.7,2.1
		c0.4,0,0.8-0.1,1.3-0.2l0.5,2.1c-0.6,0.3-1.5,0.5-2.5,0.5C253.8,168.9,252.8,167.1,252.8,164.5z"/>
	<path class="st2" d="M260.7,173.4l0.6-2.2c0.4,0.1,0.6,0.1,0.9,0.1c1.3,0,2-0.8,2.4-2l0.2-0.8l-4.8-12.1h3l2.1,6
		c0.4,1.1,0.7,2.3,1.1,3.5h0.1c0.3-1.1,0.6-2.3,0.9-3.5l1.8-6h2.8l-4.4,12.8c-1,2.8-2.3,4.5-5,4.5
		C261.6,173.7,261.1,173.6,260.7,173.4z"/>
	<path class="st2" d="M273.8,165.4V151h3v14.6c0,0.7,0.3,1,0.6,1c0.1,0,0.2,0,0.4,0l0.4,2.2c-0.4,0.2-0.9,0.3-1.5,0.3
		C274.6,168.9,273.8,167.6,273.8,165.4z"/>
	<path class="st2" d="M279.8,162.5c0-4,2.8-6.4,5.7-6.4c3.3,0,5.1,2.4,5.1,5.8c0,0.6-0.1,1-0.2,1.5h-7.7c0.3,2,1.6,3.2,3.5,3.2
		c1,0,2-0.3,2.8-0.9l1,1.8c-1.1,0.8-2.6,1.3-4.2,1.3C282.5,168.9,279.8,166.6,279.8,162.5z M288,161.2c0-1.8-0.8-2.8-2.4-2.8
		c-1.4,0-2.6,1-2.8,2.8H288z"/>
	<path class="st2" d="M292.6,162.5c0-4,2.5-6.5,5.2-6.5c1.4,0,2.2,0.5,3.2,1.3l-0.1-2V151h2.9v17.6h-2.4l-0.2-1.3h-0.1
		c-0.9,0.9-2.1,1.6-3.4,1.6C294.6,168.9,292.6,166.6,292.6,162.5z M300.9,165.2v-5.6c-0.8-0.8-1.6-1-2.4-1c-1.5,0-2.8,1.4-2.8,4
		c0,2.6,1,4,2.7,4C299.3,166.5,300.1,166.1,300.9,165.2z"/>
	<path class="st2" d="M306.8,171.6c1.6-0.7,2.6-1.8,2.5-3c-0.1,0-0.1,0-0.2,0c-1,0-1.9-0.6-1.9-1.8c0-1.1,0.9-1.8,1.9-1.8
		c1.4,0,2.2,1.1,2.2,3c0,2.5-1.4,4.4-3.9,5.2L306.8,171.6z"/>
	<path class="st2" d="M319.9,158.7h-1.6v-2.2l1.6-0.1v-1.2c0-2.5,1.2-4.4,4.1-4.4c0.9,0,1.7,0.2,2.3,0.4l-0.6,2.1
		c-0.5-0.1-0.9-0.2-1.3-0.2c-1,0-1.5,0.7-1.5,2v1.2h2.4v2.3h-2.4v9.9h-2.9V158.7z"/>
	<path class="st2" d="M327.1,152.6c0-1,0.7-1.7,1.8-1.7s1.8,0.7,1.8,1.7s-0.7,1.7-1.8,1.7S327.1,153.6,327.1,152.6z M327.4,156.4h3
		v12.3h-3V156.4z"/>
	<path class="st2" d="M334,165.4V151h3v14.6c0,0.7,0.3,1,0.6,1c0.2,0,0.2,0,0.5,0l0.3,2.2c-0.3,0.2-0.8,0.3-1.5,0.3
		C334.7,168.9,334,167.6,334,165.4z"/>
	<path class="st2" d="M341.2,164.5v-5.8h-1.7v-2.2l1.9-0.1l0.4-3.8h2.4v3.8h3.1v2.3h-3.1v5.8c0,1.4,0.6,2.1,1.7,2.1
		c0.4,0,0.8-0.1,1.3-0.2l0.5,2.1c-0.6,0.3-1.5,0.5-2.5,0.5C342.3,168.9,341.2,167.1,341.2,164.5z"/>
	<path class="st2" d="M348.6,162.5c0-4,2.8-6.4,5.7-6.4c3.3,0,5.1,2.4,5.1,5.8c0,0.6,0,1-0.1,1.5h-7.7c0.3,2,1.6,3.2,3.5,3.2
		c1,0,2-0.3,2.8-0.9l1,1.8c-1.1,0.8-2.6,1.3-4.2,1.3C351.3,168.9,348.6,166.6,348.6,162.5z M356.8,161.2c0-1.8-0.8-2.8-2.4-2.8
		c-1.4,0-2.6,1-2.8,2.8H356.8z"/>
	<path class="st2" d="M362.1,156.4h2.4l0.2,2.2h0.1c0.9-1.6,2.2-2.5,3.5-2.5c0.6,0,1,0.1,1.4,0.2l-0.6,2.5c-0.4-0.1-0.7-0.2-1.2-0.2
		c-1,0-2.1,0.7-2.9,2.5v7.4h-3V156.4z"/>
	<path class="st2" d="M370.2,165.4c0-2.7,2.1-4,7.2-4.6c0-1.2-0.5-2.3-2.2-2.3c-1.2,0-2.3,0.5-3.4,1.1l-1-1.9c1.3-0.8,3.1-1.6,5-1.6
		c3,0,4.6,1.9,4.6,5.3v7.3H378l-0.2-1.3h-0.1c-1.1,1-2.3,1.6-3.7,1.6C371.7,168.9,370.2,167.5,370.2,165.4z M377.4,165.4v-2.6
		c-3.3,0.4-4.3,1.1-4.3,2.4c0,1,0.7,1.4,1.7,1.4S376.5,166.2,377.4,165.4z"/>
	<path class="st2" d="M386.5,167.3L386.5,167.3l-0.3,1.3h-2.3V151h3v4.5l-0.1,2c1-0.9,2.3-1.5,3.5-1.5c3.1,0,4.8,2.5,4.8,6.2
		c0,4.2-2.5,6.6-5.2,6.6C388.7,168.9,387.5,168.4,386.5,167.3z M392,162.4c0-2.4-0.8-3.8-2.6-3.8c-0.9,0-1.7,0.4-2.6,1.3v5.7
		c0.8,0.7,1.7,1,2.4,1C390.8,166.5,392,165.1,392,162.4z"/>
	<path class="st2" d="M397.9,165.4V151h3v14.6c0,0.7,0.3,1,0.6,1c0.2,0,0.2,0,0.5,0l0.3,2.2c-0.3,0.2-0.8,0.3-1.5,0.3
		C398.7,168.9,397.9,167.6,397.9,165.4z"/>
	<path class="st2" d="M403.9,162.5c0-4,2.8-6.4,5.7-6.4c3.3,0,5.1,2.4,5.1,5.8c0,0.6,0,1-0.1,1.5h-7.7c0.3,2,1.6,3.2,3.5,3.2
		c1,0,2-0.3,2.8-0.9l1,1.8c-1.1,0.8-2.6,1.3-4.2,1.3C406.5,168.9,403.9,166.6,403.9,162.5z M412.1,161.2c0-1.8-0.9-2.8-2.5-2.8
		c-1.4,0-2.6,1-2.8,2.8H412.1z"/>
	<path class="st2" d="M416.8,171.6c1.6-0.7,2.6-1.8,2.5-3c-0.1,0-0.1,0-0.2,0c-1,0-1.9-0.6-1.9-1.8c0-1.1,0.9-1.8,1.9-1.8
		c1.4,0,2.2,1.1,2.2,3c0,2.5-1.4,4.4-3.9,5.2L416.8,171.6z"/>
	<path class="st2" d="M428.7,165.4c0-2.7,2.1-4,7.2-4.6c0-1.2-0.5-2.3-2.2-2.3c-1.2,0-2.3,0.5-3.4,1.1l-1-1.9c1.3-0.8,3.1-1.6,5-1.6
		c3,0,4.6,1.9,4.6,5.3v7.3h-2.4l-0.2-1.3h-0.1c-1.1,1-2.3,1.6-3.7,1.6C430.2,168.9,428.7,167.5,428.7,165.4z M435.9,165.4v-2.6
		c-3.3,0.4-4.3,1.1-4.3,2.4c0,1,0.7,1.4,1.7,1.4C434.2,166.6,435,166.2,435.9,165.4z"/>
	<path class="st2" d="M442.2,156.4h2.4l0.2,1.6h0.1c1.1-1,2.3-1.9,4-1.9c2.6,0,3.8,1.8,3.8,4.9v7.7h-2.9v-7.3c0-2-0.6-2.7-1.9-2.7
		c-1.1,0-1.8,0.5-2.8,1.5v8.5h-3V156.4z"/>
	<path class="st2" d="M455.5,162.5c0-4,2.5-6.5,5.2-6.5c1.4,0,2.2,0.5,3.2,1.3l-0.1-2V151h2.9v17.6h-2.4l-0.2-1.3H464
		c-0.9,0.9-2.1,1.6-3.4,1.6C457.5,168.9,455.5,166.6,455.5,162.5z M463.8,165.2v-5.6c-0.8-0.8-1.6-1-2.4-1c-1.5,0-2.8,1.4-2.8,4
		c0,2.6,1,4,2.8,4C462.2,166.5,463,166.1,463.8,165.2z"/>
	<path class="st2" d="M475.4,156.4h2.4l0.2,2.2h0.1c0.9-1.6,2.2-2.5,3.5-2.5c0.6,0,1,0.1,1.4,0.2l-0.6,2.5c-0.4-0.1-0.7-0.2-1.2-0.2
		c-1,0-2.1,0.7-2.9,2.5v7.4h-3V156.4z"/>
	<path class="st2" d="M483.7,162.5c0-4,2.8-6.4,5.7-6.4c3.3,0,5.1,2.4,5.1,5.8c0,0.6,0,1-0.1,1.5h-7.7c0.3,2,1.6,3.2,3.5,3.2
		c1,0,2-0.3,2.8-0.9l1,1.8c-1.1,0.8-2.6,1.3-4.2,1.3C486.4,168.9,483.7,166.6,483.7,162.5z M491.9,161.2c0-1.8-0.9-2.8-2.5-2.8
		c-1.4,0-2.6,1-2.8,2.8H491.9z"/>
	<path class="st2" d="M495.7,156.4h3l1.9,6.3c0.3,1.2,0.7,2.5,1,3.7h0.1c0.3-1.2,0.7-2.5,1-3.7l1.9-6.3h2.8l-4.2,12.3H500
		L495.7,156.4z"/>
	<path class="st2" d="M508.7,162.5c0-4,2.8-6.4,5.7-6.4c3.3,0,5.1,2.4,5.1,5.8c0,0.6,0,1-0.1,1.5h-7.7c0.3,2,1.6,3.2,3.5,3.2
		c1,0,2-0.3,2.8-0.9l1,1.8c-1.1,0.8-2.6,1.3-4.2,1.3C511.4,168.9,508.7,166.6,508.7,162.5z M516.9,161.2c0-1.8-0.8-2.8-2.4-2.8
		c-1.4,0-2.6,1-2.8,2.8H516.9z"/>
	<path class="st2" d="M522.2,156.4h2.4l0.2,2.2h0.1c0.9-1.6,2.2-2.5,3.5-2.5c0.6,0,1,0.1,1.4,0.2l-0.6,2.5c-0.4-0.1-0.7-0.2-1.2-0.2
		c-1,0-2.1,0.7-2.9,2.5v7.4h-3V156.4z"/>
	<path class="st2" d="M530.3,167.1l1.3-1.7c1.1,0.9,2.2,1.2,3.4,1.2c1.3,0,1.9-0.6,1.9-1.4c0-1-1.2-1.4-2.6-1.9
		c-1.8-0.7-3.4-1.7-3.4-3.6c0-2.1,1.8-3.7,4.5-3.7c1.7,0,3.1,0.6,4.1,1.5l-1.3,1.7c-0.9-0.6-1.8-0.9-2.7-0.9c-1.2,0-1.8,0.6-1.8,1.3
		c0,0.9,0.9,1.2,2.4,1.8c1.9,0.7,3.6,1.6,3.6,3.7c0,2.1-1.7,3.8-4.8,3.8C533.2,168.9,531.5,168.3,530.3,167.1z"/>
	<path class="st2" d="M541.5,162.5c0-4,2.8-6.4,5.7-6.4c3.3,0,5.1,2.4,5.1,5.8c0,0.6,0,1-0.1,1.5h-7.7c0.3,2,1.6,3.2,3.5,3.2
		c1,0,2-0.3,2.8-0.9l1,1.8c-1.1,0.8-2.6,1.3-4.2,1.3C544.1,168.9,541.5,166.6,541.5,162.5z M549.7,161.2c0-1.8-0.8-2.8-2.4-2.8
		c-1.4,0-2.6,1-2.8,2.8H549.7z"/>
	<path class="st2" d="M554.5,161.3h6v2.1h-6V161.3z"/>
	<path class="st2" d="M562.1,167.1l1.3-1.7c1.1,0.9,2.2,1.2,3.4,1.2c1.3,0,1.9-0.6,1.9-1.4c0-1-1.2-1.4-2.6-1.9
		c-1.8-0.7-3.4-1.7-3.4-3.6c0-2.1,1.8-3.7,4.5-3.7c1.7,0,3.1,0.6,4.1,1.5l-1.3,1.7c-0.9-0.6-1.8-0.9-2.7-0.9c-1.2,0-1.8,0.6-1.8,1.3
		c0,0.9,0.9,1.2,2.4,1.8c1.9,0.7,3.6,1.6,3.6,3.7c0,2.1-1.7,3.8-4.8,3.8C565.1,168.9,563.3,168.3,562.1,167.1z"/>
	<path class="st2" d="M573.3,162.5c0-4.1,2.8-6.5,5.9-6.5c3,0,5.8,2.4,5.8,6.5c0,4.1-2.8,6.4-5.8,6.4
		C576.1,168.9,573.3,166.6,573.3,162.5z M582,162.5c0-2.5-1-4-2.8-4s-2.8,1.6-2.8,4c0,2.4,1,4,2.8,4S582,165,582,162.5z"/>
	<path class="st2" d="M587.8,156.4h2.4l0.2,2.2h0.1c0.9-1.6,2.2-2.5,3.5-2.5c0.6,0,1,0.1,1.4,0.2l-0.6,2.5c-0.4-0.1-0.7-0.2-1.2-0.2
		c-1,0-2.1,0.7-2.9,2.5v7.4h-3V156.4z"/>
	<path class="st2" d="M597.7,164.5v-5.8h-1.7v-2.2l1.9-0.1l0.3-3.8h2.4v3.8h3.1v2.3h-3.1v5.8c0,1.4,0.6,2.1,1.7,2.1
		c0.4,0,0.9-0.1,1.3-0.2l0.5,2.1c-0.6,0.3-1.5,0.5-2.5,0.5C598.7,168.9,597.7,167.1,597.7,164.5z"/>
	<path class="st2" d="M605.1,165.4c0-2.7,2.1-4,7.2-4.6c0-1.2-0.5-2.3-2.2-2.3c-1.2,0-2.3,0.5-3.4,1.1l-1-1.9c1.3-0.8,3.1-1.6,5-1.6
		c3,0,4.6,1.9,4.6,5.3v7.3h-2.4l-0.2-1.3h-0.1c-1.1,1-2.3,1.6-3.7,1.6C606.6,168.9,605.1,167.5,605.1,165.4z M612.3,165.4v-2.6
		c-3.3,0.4-4.3,1.1-4.3,2.4c0,1,0.7,1.4,1.7,1.4C610.7,166.6,611.4,166.2,612.3,165.4z"/>
	<path class="st2" d="M621.4,167.3L621.4,167.3l-0.3,1.3h-2.3V151h3v4.5l-0.1,2c1-0.9,2.3-1.5,3.5-1.5c3.1,0,4.8,2.5,4.8,6.2
		c0,4.2-2.5,6.6-5.2,6.6C623.6,168.9,622.4,168.4,621.4,167.3z M626.9,162.4c0-2.4-0.8-3.8-2.6-3.8c-0.9,0-1.7,0.4-2.6,1.3v5.7
		c0.8,0.7,1.7,1,2.4,1C625.7,166.5,626.9,165.1,626.9,162.4z"/>
	<path class="st2" d="M632.8,165.4V151h3v14.6c0,0.7,0.3,1,0.6,1c0.2,0,0.2,0,0.5,0l0.3,2.2c-0.3,0.2-0.8,0.3-1.5,0.3
		C633.6,168.9,632.8,167.6,632.8,165.4z"/>
	<path class="st2" d="M638.8,162.5c0-4,2.8-6.4,5.7-6.4c3.3,0,5.1,2.4,5.1,5.8c0,0.6,0,1-0.1,1.5h-7.7c0.3,2,1.6,3.2,3.5,3.2
		c1,0,2-0.3,2.8-0.9l1,1.8c-1.1,0.8-2.6,1.3-4.2,1.3C641.4,168.9,638.8,166.6,638.8,162.5z M647,161.2c0-1.8-0.9-2.8-2.5-2.8
		c-1.4,0-2.6,1-2.8,2.8H647z"/>
	<path class="st2" d="M222.1,194.5v-5.8h-1.7v-2.2l1.9-0.1l0.4-3.8h2.4v3.8h3.1v2.3h-3.1v5.8c0,1.4,0.6,2.1,1.7,2.1
		c0.4,0,0.8-0.1,1.3-0.2l0.5,2.1c-0.6,0.3-1.5,0.5-2.5,0.5C223.2,198.9,222.1,197.1,222.1,194.5z"/>
	<path class="st2" d="M229.5,192.5c0-4.1,2.8-6.5,5.9-6.5c3,0,5.8,2.4,5.8,6.5c0,4.1-2.8,6.4-5.8,6.4
		C232.3,198.9,229.5,196.6,229.5,192.5z M238.2,192.5c0-2.5-1-4-2.8-4c-1.8,0-2.8,1.6-2.8,4c0,2.4,1,4,2.8,4
		C237.2,196.5,238.2,195,238.2,192.5z"/>
	<path class="st2" d="M249.6,188.7h-1.6v-2.2l1.6-0.1v-1.2c0-2.5,1.2-4.4,4.1-4.4c0.9,0,1.7,0.2,2.3,0.4l-0.6,2.1
		c-0.5-0.1-0.9-0.2-1.3-0.2c-1,0-1.5,0.7-1.5,2v1.2h2.4v2.3h-2.4v9.9h-2.9V188.7z"/>
	<path class="st2" d="M255.9,195.4c0-2.7,2.1-4,7.2-4.6c-0.1-1.2-0.5-2.3-2.2-2.3c-1.2,0-2.3,0.5-3.4,1.1l-1-1.9
		c1.4-0.8,3.1-1.6,5-1.6c3,0,4.6,1.9,4.6,5.3v7.3h-2.4l-0.2-1.3h-0.1c-1.1,1-2.3,1.6-3.7,1.6C257.4,198.9,255.9,197.5,255.9,195.4z
		 M263.1,195.4v-2.6c-3.3,0.4-4.3,1.1-4.3,2.4c0,1,0.7,1.4,1.7,1.4C261.4,196.6,262.2,196.2,263.1,195.4z"/>
	<path class="st2" d="M268.6,192.5c0-4.1,2.9-6.5,6.2-6.5c1.5,0,2.7,0.6,3.6,1.4l-1.4,1.8c-0.6-0.5-1.2-0.8-2-0.8
		c-1.9,0-3.3,1.6-3.3,4c0,2.4,1.3,4,3.2,4c1,0,1.8-0.4,2.5-1l1.2,1.9c-1.2,1-2.6,1.5-4,1.5C271.2,198.9,268.6,196.6,268.6,192.5z"/>
	<path class="st2" d="M280.7,182.6c0-1,0.7-1.7,1.8-1.7s1.8,0.7,1.8,1.7s-0.7,1.7-1.8,1.7S280.7,183.6,280.7,182.6z M281,186.4h3
		v12.3h-3V186.4z"/>
	<path class="st2" d="M287.6,195.4V181h3v14.6c0,0.7,0.3,1,0.6,1c0.1,0,0.2,0,0.4,0l0.4,2.2c-0.4,0.2-0.9,0.3-1.5,0.3
		C288.3,198.9,287.6,197.6,287.6,195.4z"/>
	<path class="st2" d="M294.1,182.6c0-1,0.7-1.7,1.8-1.7s1.8,0.7,1.8,1.7s-0.7,1.7-1.8,1.7S294.1,183.6,294.1,182.6z M294.4,186.4h3
		v12.3h-3V186.4z"/>
	<path class="st2" d="M301.4,194.5v-5.8h-1.7v-2.2l1.9-0.1l0.4-3.8h2.4v3.8h3.1v2.3h-3.1v5.8c0,1.4,0.6,2.1,1.7,2.1
		c0.4,0,0.8-0.1,1.3-0.2l0.5,2.1c-0.6,0.3-1.5,0.5-2.5,0.5C302.4,198.9,301.4,197.1,301.4,194.5z"/>
	<path class="st2" d="M308.8,195.4c0-2.7,2.1-4,7.2-4.6c-0.1-1.2-0.6-2.3-2.2-2.3c-1.2,0-2.3,0.5-3.4,1.1l-1-1.9
		c1.3-0.8,3.1-1.6,5-1.6c3,0,4.6,1.9,4.6,5.3v7.3h-2.4l-0.2-1.3h-0.1c-1.1,1-2.3,1.6-3.7,1.6C310.3,198.9,308.8,197.5,308.8,195.4z
		 M316,195.4v-2.6c-3.3,0.4-4.3,1.1-4.3,2.4c0,1,0.7,1.4,1.7,1.4C314.4,196.6,315.1,196.2,316,195.4z"/>
	<path class="st2" d="M322.4,194.5v-5.8h-1.7v-2.2l1.9-0.1l0.4-3.8h2.4v3.8h3.1v2.3h-3.1v5.8c0,1.4,0.6,2.1,1.7,2.1
		c0.4,0,0.8-0.1,1.3-0.2l0.5,2.1c-0.6,0.3-1.5,0.5-2.5,0.5C323.5,198.9,322.4,197.1,322.4,194.5z"/>
	<path class="st2" d="M329.9,192.5c0-4,2.8-6.4,5.7-6.4c3.3,0,5.1,2.4,5.1,5.8c0,0.6,0,1-0.1,1.5h-7.7c0.3,2,1.6,3.2,3.5,3.2
		c1,0,2-0.3,2.8-0.9l1,1.8c-1.1,0.8-2.6,1.3-4.2,1.3C332.5,198.9,329.9,196.6,329.9,192.5z M338,191.2c0-1.8-0.8-2.8-2.4-2.8
		c-1.4,0-2.6,1-2.8,2.8H338z"/>
	<path class="st2" d="M355.9,199.5l0.1-2c-0.9,0.9-2.1,1.5-3.3,1.5c-3.1,0-5-2.4-5-6.4c0-4,2.5-6.5,5.2-6.5c1.4,0,2.3,0.5,3.4,1.5
		h0.1l0.2-1.2h2.3v17.1h-2.9V199.5z M355.9,195.2v-5.6c-0.8-0.8-1.6-1-2.4-1c-1.5,0-2.8,1.4-2.8,4c0,2.6,1,4,2.7,4
		C354.3,196.5,355.1,196.1,355.9,195.2z"/>
	<path class="st2" d="M362.4,194.1v-7.7h2.9v7.3c0,2,0.6,2.7,1.9,2.7c1.1,0,1.8-0.5,2.7-1.7v-8.4h2.9v12.3h-2.4l-0.2-1.8h-0.1
		c-1.1,1.3-2.2,2.1-3.9,2.1C363.5,198.9,362.4,197.1,362.4,194.1z"/>
	<path class="st2" d="M376.2,182.6c0-1,0.7-1.7,1.8-1.7s1.8,0.7,1.8,1.7s-0.7,1.7-1.8,1.7S376.2,183.6,376.2,182.6z M376.4,186.4h3
		v12.3h-3V186.4z"/>
	<path class="st2" d="M382.2,192.5c0-4.1,2.9-6.5,6.2-6.5c1.5,0,2.7,0.6,3.6,1.4l-1.4,1.8c-0.6-0.5-1.2-0.8-2-0.8
		c-2,0-3.3,1.6-3.3,4c0,2.4,1.3,4,3.2,4c1,0,1.8-0.4,2.5-1l1.2,1.9c-1.2,1-2.6,1.5-4,1.5C384.8,198.9,382.2,196.6,382.2,192.5z"/>
	<path class="st2" d="M394.5,181h2.9v10.9h0.1l4.4-5.5h3.2l-4.2,5l4.6,7.2h-3.2l-3.1-5.3l-1.9,2.1v3.1h-2.9V181z"/>
	<path class="st2" d="M411.4,197.1l1.3-1.7c1.1,0.9,2.2,1.2,3.4,1.2c1.3,0,1.9-0.6,1.9-1.4c0-1-1.2-1.4-2.6-1.9
		c-1.8-0.7-3.4-1.7-3.4-3.6c0-2.1,1.8-3.7,4.5-3.7c1.7,0,3.1,0.6,4.1,1.5l-1.3,1.7c-0.9-0.6-1.8-0.9-2.7-0.9c-1.2,0-1.8,0.6-1.8,1.3
		c0,0.9,0.9,1.2,2.4,1.8c1.9,0.7,3.6,1.6,3.6,3.7c0,2.1-1.7,3.8-4.8,3.8C414.4,198.9,412.6,198.3,411.4,197.1z"/>
	<path class="st2" d="M423.4,181h2.9v10.9h0.1l4.4-5.5h3.2l-4.2,5l4.6,7.2h-3.2l-3.1-5.3l-1.9,2.1v3.1h-2.9V181z"/>
	<path class="st2" d="M436.3,182.6c0-1,0.7-1.7,1.8-1.7s1.8,0.7,1.8,1.7s-0.7,1.7-1.8,1.7S436.3,183.6,436.3,182.6z M436.5,186.4h3
		v12.3h-3V186.4z"/>
	<path class="st2" d="M443.1,186.4h2.4l0.2,1.7h0.1c1-1.1,2.2-2,3.8-2c1.8,0,2.8,0.8,3.4,2.2c1.2-1.2,2.4-2.2,3.9-2.2
		c2.6,0,3.8,1.8,3.8,4.9v7.7h-3v-7.3c0-2-0.6-2.7-1.8-2.7c-0.7,0-1.6,0.5-2.5,1.5v8.5h-2.9v-7.3c0-2-0.6-2.7-1.8-2.7
		c-0.7,0-1.6,0.5-2.5,1.5v8.5h-3V186.4z"/>
	<path class="st2" d="M464.2,186.4h2.4l0.2,1.7h0.1c1-1.1,2.2-2,3.8-2c1.8,0,2.8,0.8,3.4,2.2c1.2-1.2,2.4-2.2,3.9-2.2
		c2.6,0,3.8,1.8,3.8,4.9v7.7h-3v-7.3c0-2-0.6-2.7-1.8-2.7c-0.7,0-1.6,0.5-2.5,1.5v8.5h-2.9v-7.3c0-2-0.6-2.7-1.8-2.7
		c-0.7,0-1.6,0.5-2.5,1.5v8.5h-3V186.4z"/>
	<path class="st2" d="M485.1,182.6c0-1,0.7-1.7,1.8-1.7s1.8,0.7,1.8,1.7s-0.7,1.7-1.8,1.7S485.1,183.6,485.1,182.6z M485.4,186.4h3
		v12.3h-3V186.4z"/>
	<path class="st2" d="M491.9,186.4h2.4l0.2,1.6h0.1c1.1-1,2.3-1.9,4-1.9c2.6,0,3.8,1.8,3.8,4.9v7.7h-2.9v-7.3c0-2-0.6-2.7-1.9-2.7
		c-1.1,0-1.8,0.5-2.8,1.5v8.5h-3V186.4z"/>
	<path class="st2" d="M505.1,200.9c0-1,0.7-1.9,1.8-2.6v-0.1c-0.6-0.4-1.1-1-1.1-2c0-0.9,0.6-1.8,1.4-2.3v-0.1
		c-0.8-0.6-1.6-1.8-1.6-3.2c0-2.8,2.3-4.4,4.9-4.4c0.7,0,1.3,0.1,1.8,0.3h4.4v2.2h-2.2c0.4,0.5,0.7,1.2,0.7,2c0,2.7-2.1,4.2-4.7,4.2
		c-0.5,0-1.1-0.1-1.6-0.3c-0.3,0.3-0.6,0.6-0.6,1.2c0,0.7,0.5,1.1,2,1.1h2.2c2.9,0,4.5,0.9,4.5,3c0,2.4-2.5,4.3-6.6,4.3
		C507.3,204.1,505.1,203,505.1,200.9z M514,200.2c0-0.9-0.7-1.2-2.1-1.2h-1.6c-0.7,0-1.2,0-1.7-0.2c-0.7,0.5-0.9,1-0.9,1.6
		c0,1.1,1.2,1.7,3.1,1.7C512.7,202.1,514,201.2,514,200.2z M512.5,190.5c0-1.5-0.9-2.4-2.1-2.4c-1.2,0-2.1,0.9-2.1,2.4
		c0,1.5,0.9,2.4,2.1,2.4C511.6,192.9,512.5,192,512.5,190.5z"/>
	<path class="st2" d="M518.8,197c0-1.1,0.8-2,1.9-2c1.1,0,1.9,0.8,1.9,2c0,1.1-0.8,2-1.9,2C519.6,198.9,518.8,198.1,518.8,197z"/>
</g>
</svg>
