<?xml version="1.0" encoding="utf-8"?>
<!-- Generator: Adobe Illustrator 26.3.1, SVG Export Plug-In . SVG Version: 6.00 Build 0)  -->
<svg version="1.1" id="Livello_1" xmlns="http://www.w3.org/2000/svg" xmlns:xlink="http://www.w3.org/1999/xlink" x="0px" y="0px"
	 viewBox="0 0 24 24" style="enable-background:new 0 0 24 24;" xml:space="preserve">
<style type="text/css">
	.st0{fill:none;}
	.st1{fill:#FF6635;}
	.st2{fill:#357EC0;}
</style>
<path class="st0" d="M12,2.1c-5.5,0-9.9,4.4-9.9,9.9s4.4,9.9,9.9,9.9c4.2,0,7.8-2.7,9.2-6.4H10.8v-7h10.5C19.8,4.8,16.2,2.1,12,2.1z
	"/>
<path class="st1" d="M12,21.9c-5.5,0-9.9-4.4-9.9-9.9S6.5,2.1,12,2.1c4.2,0,7.8,2.7,9.2,6.4h2.1c-1.5-4.9-6-8.4-11.4-8.4
	C5.4,0.1,0.1,5.4,0.1,12S5.4,23.9,12,23.9c5.4,0,9.9-3.5,11.4-8.4h-2.1C19.8,19.2,16.2,21.9,12,21.9z"/>
<path class="st2" d="M23.4,8.5h-2.1C21.7,9.6,22,10.8,22,12s-0.2,2.4-0.7,3.5h2.1c0.3-1.1,0.5-2.3,0.5-3.5S23.7,9.6,23.4,8.5z"/>
<g>
	<path class="st1" d="M12.2,15.5H6.4c-0.1,0-0.2,0-0.2-0.1c-0.1,0-0.1-0.1-0.2-0.1c-0.1-0.1-0.1-0.1-0.1-0.2c0-0.1-0.1-0.2-0.1-0.2
		V8.6h1.3v5.7h5.1V15.5z"/>
	<path class="st2" d="M18.2,8.6l-3.3,6.7c-0.1,0.1-0.1,0.2-0.2,0.2s-0.2,0.1-0.3,0.1c-0.1,0-0.2,0-0.3-0.1c-0.1-0.1-0.2-0.1-0.2-0.2
		l-3.3-6.7h1.4l2.4,5l2.4-5H18.2z"/>
</g>
</svg>
